pitch,start,end,velocity
60,0.0,0.5,90
64,0.5,1.0,88
67,1.0,1.5,86
64,1.5,2.0,84
67,2.0,2.5,90
71,2.5,3.0,88
74,3.0,3.5,86
71,3.5,4.0,84
69,4.0,4.5,90
72,4.5,5.0,88
76,5.0,5.5,86
72,5.5,6.0,84
65,6.0,6.5,90
69,6.5,7.0,88
72,7.0,7.5,86
69,7.5,8.0,84
60,8.0,8.5,92
64,8.5,9.0,90
67,9.0,9.5,88
64,9.5,10.0,86
67,10.0,10.5,92
71,10.5,11.0,90
74,11.0,11.5,88
71,11.5,12.0,86
69,12.0,12.5,92
72,12.5,13.0,90
76,13.0,13.5,88
72,13.5,14.0,86
65,14.0,14.5,92
69,14.5,15.0,90
72,15.0,15.5,88
69,15.5,16.0,86
